<?xml version="1.0" encoding="iso-8859-1"?>
<!-- Generator: Adobe Illustrator 19.0.1, SVG Export Plug-In . SVG Version: 6.00 Build 0)  -->
<svg version="1.1" xmlns="http://www.w3.org/2000/svg" xmlns:xlink="http://www.w3.org/1999/xlink" x="0px" y="0px"
	 viewBox="0 0 128 128" style="enable-background:new 0 0 128 128;" xml:space="preserve">
<g id="_x35_8">
	<path id="_x35_8_1_" style="fill:#171617;" d="M103.214,61.393c-7.563,0-13.719,6.151-13.719,13.718
		c0,6.607,4.798,12.161,10.952,13.435v10.525c0,12.381-11.214,22.45-23.589,22.45s-23.589-10.069-23.589-22.45V79.957
		c6.154-0.189,11.332-1.321,17.684-5.632c8.727-5.915,19.849-19.303,20.667-49.493c0.189-6.812-2.508-12.649-7.807-16.031
		c-2.925-1.841-5.929-2.674-7.98-3.021V4.678c0-2.423-1.665-4.484-4.102-4.484c-2.437,0-4.102,2.061-4.102,4.484v12.051
		c0,2.438,1.665,4.499,4.102,4.499c2.437,0,4.102-2.061,4.102-4.499v-4.547c2.051,0.362,3.384,1.038,4.799,1.935
		c1.997,1.259,5.403,4.311,5.23,10.541c-0.739,27.515-9.909,39.378-17.41,44.459c-6.997,4.751-14.043,4.688-16.009,4.562
		c-0.189-0.016-0.315-0.016-0.363-0.016l-0.307,0.016c-1.981,0.126-8.983,0.189-15.964-4.562
		c-7.5-5.081-16.528-16.944-17.283-44.459c-0.157-6.23,2.776-9.282,4.758-10.541c1.95-1.243,3.32-1.825,5.371-2.077v4.688
		c0,2.438,1.665,4.499,4.102,4.499s4.102-2.061,4.102-4.499V4.678c0-2.423-1.665-4.484-4.102-4.484s-4.102,2.061-4.102,4.484v1.007
		c-4.102,0.283-5.561,1.07-8.784,3.115c-5.283,3.367-8.307,9.219-8.134,16.031c0.833,30.19,10.708,43.578,19.435,49.493
		c6.305,4.295,11.842,5.428,15.944,5.632v19.115c0,15.842,12.883,28.743,28.717,28.743c15.85,0,28.717-12.9,28.717-28.743V88.358
		c8.205-1.557,11.275-6.922,11.275-13.246C115.824,67.544,110.777,61.393,103.214,61.393z M103.214,82.537
		c-4.088,0-7.422-3.335-7.422-7.426c0-4.091,3.333-7.426,7.422-7.426c4.104,0,7.422,3.335,7.422,7.426
		C110.636,79.202,107.318,82.537,103.214,82.537z"/>
</g>
<g id="Layer_1">
</g>
</svg>
